<svg id="Capa_1" enable-background="new 0 0 512 512" height="512" viewBox="0 0 512 512" width="512" xmlns="http://www.w3.org/2000/svg"><g><path d="m256.629 89.107c71.402 0 129.492 58.09 129.492 129.492 0 32.635-12.14 62.484-32.135 85.282h97.83v-264.177h-262.245l-29.38-39.704h-123.369v303.882h122.449c-19.995-22.798-32.135-52.647-32.135-85.282 0-71.403 58.091-129.493 129.493-129.493z"/><path d="m492.928 417.067v-50.74h-221.3v-19.108c-4.923.571-9.926.874-15 .874s-10.077-.303-15-.874v19.108h-222.557v50.74c4.744-1.148 9.69-1.772 14.781-1.772 5.247 0 10.343.656 15.219 1.873v-20.841h192.558v20.645c4.619-1.085 9.426-1.677 14.371-1.677 5.394 0 10.63.684 15.629 1.968v-20.936h191.3v20.841c4.876-1.218 9.972-1.874 15.22-1.874 5.091.001 10.036.625 14.779 1.773z"/><path d="m357.121 218.6c0-55.412-45.081-100.492-100.492-100.492-55.412 0-100.493 45.081-100.493 100.492 0 55.412 45.081 100.493 100.493 100.493s100.492-45.081 100.492-100.493zm-115.492.077v-51.822h30v65.939l-36.294 30.023-19.123-23.117z"/><path d="m222.148 478.148c0 18.666 15.186 33.852 33.852 33.852s33.852-15.186 33.852-33.852-15.186-33.853-33.852-33.853-33.852 15.187-33.852 33.853z"/><path d="m0 478.148c0 18.666 15.186 33.852 33.852 33.852s33.852-15.186 33.852-33.852-15.186-33.853-33.852-33.853-33.852 15.187-33.852 33.853z"/><path d="m478.148 444.295c-18.666 0-33.852 15.187-33.852 33.853s15.186 33.852 33.852 33.852 33.852-15.186 33.852-33.852-15.186-33.853-33.852-33.853z"/></g></svg>