<?xml version="1.0"?>
<svg xmlns="http://www.w3.org/2000/svg" xmlns:xlink="http://www.w3.org/1999/xlink" xmlns:svgjs="http://svgjs.com/svgjs" version="1.1" width="512" height="512" x="0" y="0" viewBox="0 0 512 512" style="enable-background:new 0 0 512 512" xml:space="preserve" class=""><g><g xmlns="http://www.w3.org/2000/svg"><rect fill="#468dca" height="464" rx="10" width="336" x="136" y="24" data-original="#31cad0" style="" class=""/><path d="m168 64h272v384h-272z" fill="#d6f4f6" data-original="#d6f4f6" style="" class=""/><g><circle cx="304" cy="168" fill="#468dca" r="48" data-original="#31cad0" style="" class=""/><path d="m328 160h-16v-16h-16v16h-16v16h16v16h16v-16h16z" fill="#f7fdfd" data-original="#f7fdfd" style=""/></g><g fill="#31cad0"><path d="m240 256h120v16h-120z" fill="#468dca" data-original="#31cad0" style="" class=""/><path d="m376 256h40v16h-40z" fill="#468dca" data-original="#31cad0" style="" class=""/><path d="m256 336h104v16h-104z" fill="#468dca" data-original="#31cad0" style="" class=""/><path d="m376 336h40v16h-40z" fill="#468dca" data-original="#31cad0" style="" class=""/><path d="m240 296h48v16h-48z" fill="#468dca" data-original="#31cad0" style="" class=""/><path d="m304 296h112v16h-112z" fill="#468dca" data-original="#31cad0" style="" class=""/></g><path d="m216 24h176a0 0 0 0 1 0 0v54a10 10 0 0 1 -10 10h-156a10 10 0 0 1 -10-10v-54a0 0 0 0 1 0 0z" fill="#fdbf44" data-original="#fdbf44" style="" class=""/><path d="m240 48h16v16h-16z" fill="#fffcf8" data-original="#fffcf8" style=""/><path d="m352 48h16v16h-16z" fill="#fffcf8" data-original="#fffcf8" style=""/><path d="m272 48h64v16h-64z" fill="#fffcf8" data-original="#fffcf8" style=""/><path d="m304 376h112v16h-112z" fill="#468dca" data-original="#31cad0" style="" class=""/></g><g xmlns="http://www.w3.org/2000/svg"><path d="m206 488h-156a10 10 0 0 1 -10-10v-166l16-16v-40h144v40l16 16v166a10 10 0 0 1 -10 10z" fill="#e64b30" data-original="#e64b30" style="" class=""/><path d="m176 376h-32v-32h-32v32h-32v32h32v32h32v-32h32z" fill="#fffcfc" data-original="#fffcfc" style="" class=""/><path d="m56 280h112v16h-112z" fill="#cc432b" data-original="#cc432b" style=""/><rect fill="#fdbf44" height="64" rx="10" width="176" x="40" y="200" data-original="#fdbf44" style="" class=""/></g><g xmlns="http://www.w3.org/2000/svg"><circle cx="248" cy="440" fill="#fdbf44" r="48" data-original="#fdbf44" style="" class=""/><path d="m215.091 405.058 52.509 78.769a48.085 48.085 0 0 0 13.306-8.885l-52.506-78.769a48.085 48.085 0 0 0 -13.309 8.885z" fill="#cc9a37" data-original="#cc9a37" style=""/></g></g></svg>
