<svg id="Capa_1" enable-background="new 0 0 512 512" height="512" viewBox="0 0 512 512" width="512" xmlns="http://www.w3.org/2000/svg"><g><path d="m401.006 511.958c33.755 0 61.216-27.461 61.216-61.215 0-11.449-3.167-22.169-8.659-31.344l-83.9 83.901c9.175 5.492 19.895 8.658 31.343 8.658z"/><path d="m462.222 298.311c0-11.449-3.167-22.169-8.659-31.344l-83.9 83.9c9.175 5.493 19.895 8.659 31.344 8.659 33.754.001 61.215-27.46 61.215-61.215z"/><path d="m401.006 389.527c-33.755 0-61.216 27.461-61.216 61.216 0 11.449 3.167 22.169 8.659 31.344l83.9-83.901c-9.174-5.492-19.894-8.659-31.343-8.659z"/><path d="m401.006 237.096c-33.755 0-61.216 27.461-61.216 61.216 0 11.449 3.167 22.169 8.659 31.344l83.9-83.9c-9.174-5.494-19.894-8.66-31.343-8.66z"/><path d="m309.79 450.743c0-31.825 16.386-59.89 41.161-76.216-24.775-16.326-41.161-44.391-41.161-76.216 0-48.28 37.706-87.913 85.215-91.013v-22.367c0-17.949-14.551-32.5-32.5-32.5h-36.545v-44.779h-207.136v44.779h-36.546c-17.949 0-32.5 14.551-32.5 32.5v21.546h222.137v237.137h-222.137v35.886c0 17.949 14.551 32.5 32.5 32.5h251.2c-14.711-16.202-23.688-37.701-23.688-61.257z"/><path d="m241.915 236.477h-192.137v177.137h192.137zm-45.057 104.368h-35.512v35.513h-30v-35.513h-35.511v-30h35.512v-35.512h30v35.512h35.512v30z"/><path d="m84.3 0h276.183v77.652h-276.183z"/></g></svg>