<?xml version="1.0"?>
<svg xmlns="http://www.w3.org/2000/svg" xmlns:xlink="http://www.w3.org/1999/xlink" xmlns:svgjs="http://svgjs.com/svgjs" version="1.1" width="512" height="512" x="0" y="0" viewBox="0 0 409.6 409.6" style="enable-background:new 0 0 512 512" xml:space="preserve" class=""><g>
<path xmlns="http://www.w3.org/2000/svg" style="" d="M1.077,163.307l46.574,121.12h314.299l46.574-121.12c3.259-8.476-1.141-17.934-9.68-21.021  c-131.927-47.694-255.908-47.784-388.084,0C2.218,145.373-2.183,154.831,1.077,163.307z" fill="#ebf0f3" data-original="#ebf0f3" class=""/>
<rect xmlns="http://www.w3.org/2000/svg" x="47.652" y="284.419" style="" width="314.317" height="18.698" fill="#468dca" data-original="#d5d6db" class=""/>
<path xmlns="http://www.w3.org/2000/svg" style="" d="M270.479,192.134c5.461,43.32-30.97,79.751-74.29,74.291c-29.514-3.72-53.348-27.553-57.069-57.068  c-5.46-43.319,30.968-79.751,74.288-74.292C242.923,138.784,266.758,162.619,270.479,192.134z" fill="#d3250f" data-original="#e56353" class=""/>
<polygon xmlns="http://www.w3.org/2000/svg" style="" points="250.64,183.198 222.348,183.198 222.348,154.906 187.252,154.906 187.252,183.198   158.96,183.198 158.96,218.293 187.252,218.293 187.252,246.585 222.348,246.585 222.348,218.293 250.64,218.293 " fill="#ffffff" data-original="#ffffff" class=""/>
<g xmlns="http://www.w3.org/2000/svg">
</g>
<g xmlns="http://www.w3.org/2000/svg">
</g>
<g xmlns="http://www.w3.org/2000/svg">
</g>
<g xmlns="http://www.w3.org/2000/svg">
</g>
<g xmlns="http://www.w3.org/2000/svg">
</g>
<g xmlns="http://www.w3.org/2000/svg">
</g>
<g xmlns="http://www.w3.org/2000/svg">
</g>
<g xmlns="http://www.w3.org/2000/svg">
</g>
<g xmlns="http://www.w3.org/2000/svg">
</g>
<g xmlns="http://www.w3.org/2000/svg">
</g>
<g xmlns="http://www.w3.org/2000/svg">
</g>
<g xmlns="http://www.w3.org/2000/svg">
</g>
<g xmlns="http://www.w3.org/2000/svg">
</g>
<g xmlns="http://www.w3.org/2000/svg">
</g>
<g xmlns="http://www.w3.org/2000/svg">
</g>
</g></svg>
