<?xml version="1.0"?>
<svg xmlns="http://www.w3.org/2000/svg" xmlns:xlink="http://www.w3.org/1999/xlink" xmlns:svgjs="http://svgjs.com/svgjs" version="1.1" width="512" height="512" x="0" y="0" viewBox="0 0 64 64" style="enable-background:new 0 0 512 512" xml:space="preserve" class=""><g><g xmlns="http://www.w3.org/2000/svg"><path d="m37 11h25v51h-25z" fill="#a9adcc" data-original="#a9adcc" style="" class=""/><path d="m41 39h17v19h-17z" fill="#e2e7f6" data-original="#e2e7f6" style="" class=""/><path d="m43 52h-36c-2.761 0-5-2.239-5-5v-24c0-2.761 2.239-5 5-5h36c2.761 0 5 2.239 5 5v24c0 2.761-2.239 5-5 5z" fill="#d4d9f0" data-original="#d4d9f0" style="" class=""/><path d="m48 23c0-2.761-2.239-5-5-5h-36c-2.761 0-5 2.239-5 5v21h46z" fill="#c91f1f" data-original="#3279ea" style="" class=""/><path d="m48 23h10v4h-10z" fill="#e2e7f6" data-original="#e2e7f6" style="" class=""/><path d="m14.5 40c14.89 0 27.196-9.537 29.206-21.929-.233-.033-.464-.071-.706-.071h-36c-2.761 0-5 2.239-5 5v14.599c3.796 1.537 8.031 2.401 12.5 2.401z" fill="#468dca" data-original="#5b94ee" style="" class=""/><path d="m34 62h-18v-1c0-1.657 1.343-3 3-3h12c1.657 0 3 1.343 3 3z" fill="#d4d9f0" data-original="#d4d9f0" style="" class=""/><path d="m21 52h8v6h-8z" fill="#e2e7f6" data-original="#e2e7f6" style="" class=""/><g><path d="m39 47h4v2h-4z" fill="#a9adcc" data-original="#a9adcc" style="" class=""/></g><g fill="#e2e7f6"><circle cx="56" cy="17" r="2" fill="#e2e7f6" data-original="#e2e7f6" style="" class=""/><path d="m48 31h10v4h-10z" fill="#e2e7f6" data-original="#e2e7f6" style="" class=""/><path d="m32 13c0-6.075-4.925-11-11-11s-11 4.925-11 11c0 5.355 3.829 9.812 8.897 10.794l2.103 4.206 2.103-4.206c5.068-.982 8.897-5.439 8.897-10.794z" fill="#e2e7f6" data-original="#e2e7f6" style="" class=""/></g><path d="m27 11h-4v-4h-4v4h-4v4h4v4h4v-4h4z" fill="#d23f34" data-original="#d23f34" style="" class=""/></g></g></svg>
