<?xml version="1.0"?>
<svg xmlns="http://www.w3.org/2000/svg" xmlns:xlink="http://www.w3.org/1999/xlink" xmlns:svgjs="http://svgjs.com/svgjs" version="1.1" width="512" height="512" x="0" y="0" viewBox="0 0 472 472" style="enable-background:new 0 0 512 512" xml:space="preserve" class=""><g><path xmlns="http://www.w3.org/2000/svg" d="m16 64h400c8.835938 0 16 7.164062 16 16v240h-432v-240c0-8.835938 7.164062-16 16-16zm0 0" fill="#468dca" data-original="#75c1ff" style="" class=""/><path xmlns="http://www.w3.org/2000/svg" d="m0 320h432v64c0 8.835938-7.164062 16-16 16h-400c-8.835938 0-16-7.164062-16-16zm0 0" fill="#efefef" data-original="#efefef" style="" class=""/><path xmlns="http://www.w3.org/2000/svg" d="m232 360c0 8.835938-7.164062 16-16 16s-16-7.164062-16-16 7.164062-16 16-16 16 7.164062 16 16zm0 0" fill="#bcbcbc" data-original="#bcbcbc" style="" class=""/><path xmlns="http://www.w3.org/2000/svg" d="m168 400h96v64h-96zm0 0" fill="#bcbcbc" data-original="#bcbcbc" style="" class=""/><path xmlns="http://www.w3.org/2000/svg" d="m136 456h160v16h-160zm0 0" fill="#efefef" data-original="#efefef" style="" class=""/><path xmlns="http://www.w3.org/2000/svg" d="m64 0h192c8.835938 0 16 7.164062 16 16v256c0 8.835938-7.164062 16-16 16h-192c-8.835938 0-16-7.164062-16-16v-256c0-8.835938 7.164062-16 16-16zm0 0" fill="#efefef" data-original="#efefef" style="" class=""/><path xmlns="http://www.w3.org/2000/svg" d="m272 24h96c8.835938 0 16 7.164062 16 16v176c0 8.835938-7.164062 16-16 16h-96zm0 0" fill="#d6d6d6" data-original="#d6d6d6" style=""/><path xmlns="http://www.w3.org/2000/svg" d="m104 72h32v-32h48v32h32v48h-32v32h-48v-32h-32zm0 0" fill="#d73123" data-original="#e65d52" style="" class=""/><g xmlns="http://www.w3.org/2000/svg" fill="#a3a3a3"><path d="m72 176h16v16h-16zm0 0" fill="#a3a3a3" data-original="#a3a3a3" style=""/><path d="m104 176h48v16h-48zm0 0" fill="#a3a3a3" data-original="#a3a3a3" style=""/><path d="m168 176h16v16h-16zm0 0" fill="#a3a3a3" data-original="#a3a3a3" style=""/><path d="m72 208h16v16h-16zm0 0" fill="#a3a3a3" data-original="#a3a3a3" style=""/><path d="m104 208h48v16h-48zm0 0" fill="#a3a3a3" data-original="#a3a3a3" style=""/><path d="m168 208h16v16h-16zm0 0" fill="#a3a3a3" data-original="#a3a3a3" style=""/><path d="m72 240h16v16h-16zm0 0" fill="#a3a3a3" data-original="#a3a3a3" style=""/><path d="m104 240h112v16h-112zm0 0" fill="#a3a3a3" data-original="#a3a3a3" style=""/><path d="m232 240h16v16h-16zm0 0" fill="#a3a3a3" data-original="#a3a3a3" style=""/></g><path xmlns="http://www.w3.org/2000/svg" d="m216 184h16c4.417969 0 8 3.582031 8 8v16c0 4.417969-3.582031 8-8 8h-16c-4.417969 0-8-3.582031-8-8v-16c0-4.417969 3.582031-8 8-8zm0 0" fill="#ffd04a" data-original="#ffd04a" style=""/><path xmlns="http://www.w3.org/2000/svg" d="m296 128h16v16h-16zm0 0" fill="#707070" data-original="#707070" style=""/><path xmlns="http://www.w3.org/2000/svg" d="m328 128h32v16h-32zm0 0" fill="#707070" data-original="#707070" style=""/><path xmlns="http://www.w3.org/2000/svg" d="m296 160h16v16h-16zm0 0" fill="#707070" data-original="#707070" style=""/><path xmlns="http://www.w3.org/2000/svg" d="m328 160h32v16h-32zm0 0" fill="#707070" data-original="#707070" style=""/><path xmlns="http://www.w3.org/2000/svg" d="m296 192h16v16h-16zm0 0" fill="#707070" data-original="#707070" style=""/><path xmlns="http://www.w3.org/2000/svg" d="m328 192h32v16h-32zm0 0" fill="#707070" data-original="#707070" style=""/><path xmlns="http://www.w3.org/2000/svg" d="m320 56h16c8.835938 0 16 7.164062 16 16v16c0 8.835938-7.164062 16-16 16h-16c-8.835938 0-16-7.164062-16-16v-16c0-8.835938 7.164062-16 16-16zm0 0" fill="#73c97c" data-original="#73c97c" style="" class=""/></g></svg>
