<svg id="Capa_1" enable-background="new 0 0 512 512" height="512" viewBox="0 0 512 512" width="512" xmlns="http://www.w3.org/2000/svg"><g><path d="m326.784 60.877h-46.868c.988 4.889 1.493 9.905 1.493 15v10.125c0 24.813-20.187 45-45 45h-120.5c-24.813 0-45-20.187-45-45v-10.125c0-5.094.504-10.111 1.493-15h-37.811c-8.284 0-15 6.716-15 15v421.123c0 8.284 6.716 15 15 15h292.193c8.284 0 15-6.716 15-15v-421.123c0-8.285-6.716-15-15-15zm-180.75 130.5h15.125v-15.125c0-8.284 6.716-15 15-15s15 6.716 15 15v15.125h15.125c8.284 0 15 6.716 15 15s-6.716 15-15 15h-15.125v15.125c0 8.284-6.716 15-15 15s-15-6.716-15-15v-15.125h-15.125c-8.284 0-15-6.716-15-15s6.716-15 15-15zm90.375 240.875h-120.5c-8.284 0-15-6.716-15-15s6.716-15 15-15h120.5c8.284 0 15 6.716 15 15s-6.716 15-15 15zm0-60.25h-120.5c-8.284 0-15-6.716-15-15s6.716-15 15-15h120.5c8.284 0 15 6.716 15 15s-6.716 15-15 15zm0-60.25h-120.5c-8.284 0-15-6.716-15-15s6.716-15 15-15h120.5c8.284 0 15 6.716 15 15s-6.716 15-15 15z"/><path d="m115.909 101.002h120.5c8.284 0 15-6.716 15-15v-10.125c0-20.332-13.516-37.566-32.035-43.189-5.495-18.378-22.226-32.129-41.957-32.67-12.262-.333-23.918 4.195-32.724 12.763-5.762 5.606-9.83 12.461-11.955 19.971-18.413 5.688-31.829 22.87-31.829 43.126v10.125c0 8.283 6.716 14.999 15 14.999z"/><path d="m492.409 421.75v-286.25c0-2.35-.552-4.667-1.612-6.765l-30.125-59.623c-2.552-5.051-7.729-8.235-13.388-8.235s-10.836 3.185-13.388 8.235l-30.125 59.623c-1.061 2.098-1.612 4.415-1.612 6.765v286.25z"/><path d="m402.159 451.75v45.25c0 8.284 6.716 15 15 15h60.25c8.284 0 15-6.716 15-15v-45.25z"/></g></svg>