<?xml version="1.0" encoding="iso-8859-1"?>
<!-- Generator: Adobe Illustrator 19.0.0, SVG Export Plug-In . SVG Version: 6.00 Build 0)  -->
<svg version="1.1" id="Capa_1" xmlns="http://www.w3.org/2000/svg" xmlns:xlink="http://www.w3.org/1999/xlink" x="0px" y="0px"
	 viewBox="0 0 512 512" style="enable-background:new 0 0 512 512;" xml:space="preserve">
<g>
	<g>
		<rect x="90.05" y="290.54" width="150.9" height="121.41"/>
	</g>
</g>
<g>
	<g>
		<path d="M376.036,90c0,0.012,0,0.024,0,0.036c0,35.822-15.778,68.024-40.743,90.036H512V90H376.036z"/>
	</g>
</g>
<g>
	<g>
		<g>
			<path d="M135.963,90.036c0-0.012,0-0.024,0-0.036H0v90.072h176.707C151.742,158.059,135.963,125.858,135.963,90.036z"/>
			<polygon points="176.707,180.072 176.707,180.072 176.707,180.072 			"/>
		</g>
	</g>
</g>
<g>
	<g>
		<rect x="331" y="290.54" width="91" height="221.46"/>
	</g>
</g>
<g>
	<g>
		<path d="M0,210.072V512h301V260.539h151V512h60V210.072H0z M270.952,441.944H60.048V260.539h210.904V441.944z"/>
	</g>
</g>
<g>
	<g>
		<path d="M256,0c-49.646,0-90.036,40.39-90.036,90.036s40.39,90.036,90.036,90.036s90.036-40.389,90.036-90.036
			C346.036,40.39,305.646,0,256,0z M301.036,105.036H271v30.036h-30v-30.036h-30.036v-30H241V45h30v30.036h30.036V105.036z"/>
	</g>
</g>
<g>
</g>
<g>
</g>
<g>
</g>
<g>
</g>
<g>
</g>
<g>
</g>
<g>
</g>
<g>
</g>
<g>
</g>
<g>
</g>
<g>
</g>
<g>
</g>
<g>
</g>
<g>
</g>
<g>
</g>
</svg>
