<?xml version="1.0"?>
<svg xmlns="http://www.w3.org/2000/svg" xmlns:xlink="http://www.w3.org/1999/xlink" xmlns:svgjs="http://svgjs.com/svgjs" version="1.1" width="512" height="512" x="0" y="0" viewBox="0 0 512 512" style="enable-background:new 0 0 512 512" xml:space="preserve" class=""><g>
<path xmlns="http://www.w3.org/2000/svg" style="" d="M482,300l-71.4,99.399L482,452v44.099H30V251.7c0-8.401,6.599-15,15-15h422c8.401,0,15,6.599,15,15  V300z" fill="#e5e5e5" data-original="#e5e5e5" class=""/>
<rect xmlns="http://www.w3.org/2000/svg" x="105.9" y="315" style="" width="149.2" height="181.1" fill="#c5c2c2" data-original="#19dec1" class=""/>
<path xmlns="http://www.w3.org/2000/svg" style="" d="M482,300l-71.4,99.399L482,452v44.099H256V236.7h211c8.401,0,15,6.599,15,15V300z" fill="#d9d9d9" data-original="#d9d9d9" class=""/>
<path xmlns="http://www.w3.org/2000/svg" style="" d="M482,452H316c-8.291,0-15-6.709-15-15V315c0-8.291,6.709-15,15-15h166V452z" fill="#777777" data-original="#17ceb4" class=""/>
<path xmlns="http://www.w3.org/2000/svg" style="" d="M271,315v181.099h-30V330h-45v166.099h-30V330h-46v166.099H90V315c0-8.401,6.599-15,15-15h151  C264.401,300,271,306.599,271,315z" fill="#777777" data-original="#57555c" class=""/>
<path xmlns="http://www.w3.org/2000/svg" style="" d="M271,315v181.099h-15V300C264.401,300,271,306.599,271,315z" fill="#777777" data-original="#3c3a41" class=""/>
<path xmlns="http://www.w3.org/2000/svg" style="" d="M510.2,244.799l-60-116.7c-2.4-5.1-7.5-8.099-13.2-8.099H75c-5.7,0-10.8,2.999-13.2,8.099l-60,116.7  c-2.401,4.801-2.401,10.201,0.3,14.7C4.799,264,9.901,266.7,15,266.7h482c5.099,0,10.201-2.701,12.9-7.202  C512.601,255,512.601,249.6,510.2,244.799z" fill="#468dca" data-original="#fd4e26" class=""/>
<path xmlns="http://www.w3.org/2000/svg" style="" d="M509.9,259.499c-2.699,4.501-7.8,7.202-12.9,7.202H256V120h181c5.7,0,10.8,2.999,13.2,8.099l60,116.7  C512.601,249.6,512.601,255,509.9,259.499z" fill="#468dca" data-original="#e61e14" class=""/>
<path xmlns="http://www.w3.org/2000/svg" style="" d="M346,75v30c0,8.399-6.599,15-15,15h-45v45c0,8.399-6.599,15-15,15h-30c-8.401,0-15-6.601-15-15v-45  h-45c-8.401,0-15-6.601-15-15V75c0-8.401,6.599-15,15-15h45V15c0-8.401,6.599-15,15-15h30c8.401,0,15,6.599,15,15v45h45  C339.401,60,346,66.599,346,75z" fill="#f70000" data-original="#fcbf29" class=""/>
<path xmlns="http://www.w3.org/2000/svg" style="" d="M346,75v30c0,8.399-6.599,15-15,15h-45v45c0,8.399-6.599,15-15,15h-15V0h15c8.401,0,15,6.599,15,15  v45h45C339.401,60,346,66.599,346,75z" fill="#f70000" data-original="#fe9923" class=""/>
<path xmlns="http://www.w3.org/2000/svg" style="" d="M512,497c0,8.399-6.599,15-15,15H15c-8.401,0-15-6.601-15-15c0-8.401,6.599-15,15-15h482  C505.401,482,512,488.599,512,497z" fill="#777777" data-original="#787780" class=""/>
<path xmlns="http://www.w3.org/2000/svg" style="" d="M512,497c0,8.399-6.599,15-15,15H256v-30h241C505.401,482,512,488.599,512,497z" fill="#777777" data-original="#57555c" class=""/>
<g xmlns="http://www.w3.org/2000/svg">
</g>
<g xmlns="http://www.w3.org/2000/svg">
</g>
<g xmlns="http://www.w3.org/2000/svg">
</g>
<g xmlns="http://www.w3.org/2000/svg">
</g>
<g xmlns="http://www.w3.org/2000/svg">
</g>
<g xmlns="http://www.w3.org/2000/svg">
</g>
<g xmlns="http://www.w3.org/2000/svg">
</g>
<g xmlns="http://www.w3.org/2000/svg">
</g>
<g xmlns="http://www.w3.org/2000/svg">
</g>
<g xmlns="http://www.w3.org/2000/svg">
</g>
<g xmlns="http://www.w3.org/2000/svg">
</g>
<g xmlns="http://www.w3.org/2000/svg">
</g>
<g xmlns="http://www.w3.org/2000/svg">
</g>
<g xmlns="http://www.w3.org/2000/svg">
</g>
<g xmlns="http://www.w3.org/2000/svg">
</g>
</g></svg>
