<svg id="Capa_1" enable-background="new 0 0 512 512" height="512" viewBox="0 0 512 512" width="512" xmlns="http://www.w3.org/2000/svg"><g><path d="m356.214 111h-199.971c1.837 74.148 11.22 176.82 36.065 246.742 11.697 32.92 25.594 55.516 41.348 67.258h189.022c-51.324-70.914-64.461-227.187-66.464-314zm-124.214 58h9v-9c0-8.284 6.716-15 15-15s15 6.716 15 15v9h9c8.284 0 15 6.716 15 15s-6.716 15-15 15h-9v9c0 8.284-6.716 15-15 15s-15-6.716-15-15v-9h-9c-8.284 0-15-6.716-15-15s6.716-15 15-15zm-15 103c0-8.284 6.716-15 15-15h80c8.284 0 15 6.716 15 15s-6.716 15-15 15h-80c-8.284 0-15-6.716-15-15zm111 79h-80c-8.284 0-15-6.716-15-15s6.716-15 15-15h80c8.284 0 15 6.716 15 15s-6.716 15-15 15z"/><path d="m156 342.426v82.574h36.683c-14.466-19.986-26.713-47.56-36.683-82.574z"/><path d="m391.621 57c-4.257 30.33-5.543 60.995-3.86 91.575 3.906 70.98 16.025 184.978 51.239 246.578v-323.153c0-8.284-6.716-15-15-15-33.325 0-32.393.1-32.379 0z"/><path d="m141 455c-8.284 0-15-6.716-15-15v-302.511c0-26.928-1.878-53.823-5.621-80.489h-32.379c-8.284 0-15 6.716-15 15v425c0 8.284 6.716 15 15 15h336c8.284 0 15-6.716 15-15v-42z"/><path d="m154.042 81h203.916l5.602-39.915c1.267-9.025-5.741-17.085-14.854-17.085h-56.706c-5.889-14.082-19.808-24-36-24s-30.111 9.918-36 24h-56.706c-9.113 0-16.121 8.06-14.854 17.085z"/></g></svg>