<svg id="Layer_1" enable-background="new 0 0 512.025 512.025" height="512" viewBox="0 0 512.025 512.025" width="512" xmlns="http://www.w3.org/2000/svg"><g><path d="m512.021 97.968h-89.616c.257 3.436.39 6.906.39 10.406 0 34.357-12.591 65.826-33.395 90.046v87.442h-30v-61.241c-9.297 6.018-19.359 10.949-30.004 14.618v46.623h-30v-39.926c-4.921.532-9.916.813-14.976.813-5.078 0-10.09-.283-15.028-.819v39.932h-30v-46.641c-10.646-3.674-20.707-8.611-30.004-14.634v61.275h-30v-87.504c-20.773-24.212-33.343-55.656-33.343-89.984 0-3.5.133-6.97.39-10.406h-56.125l-15.298-97.911h-75.008v30h49.332l65.314 418.027h29.239c-2.049 5.268-3.186 10.987-3.186 16.971 0 25.899 21.071 46.971 46.971 46.971s46.971-21.071 46.971-46.971c0-5.983-1.137-11.703-3.186-16.971h123.764c-2.049 5.268-3.186 10.987-3.186 16.971 0 25.899 21.07 46.971 46.97 46.971s46.971-21.071 46.971-46.971-21.071-46.971-46.971-46.971h-258.681l-7.863-50.326h324.631z"/><path d="m284.421 0c-59.758 0-108.375 48.616-108.375 108.374s48.617 108.375 108.375 108.375 108.374-48.617 108.374-108.375-48.616-108.374-108.374-108.374zm15 156.709h-30v-33.335h-33.335v-30h33.335v-33.334h30v33.334h33.334v30h-33.334z"/></g></svg>