<svg height="472pt" viewBox="0 -12 472 472" width="472pt" xmlns="http://www.w3.org/2000/svg"><path d="m192 120h96c8.835938 0 16 7.164062 16 16v176c0 8.835938-7.164062 16-16 16h-96c-8.835938 0-16-7.164062-16-16v-176c0-8.835938 7.164062-16 16-16zm0 0" fill="#ffbf75"/><path d="m303.742188 133.453125c-.9375-5.800781-4.996094-10.609375-10.550782-12.519531l-77.191406 100.347656v106.71875h16v-101.28125zm0 0" fill="#cc995e"/><path d="m424 208v-40c0-4.417969-3.582031-8-8-8h-16c-4.417969 0-8 3.582031-8 8v40zm0 0" fill="#cc5249"/><path d="m472 276c0-46.390625-28.652344-84-64-84s-64 37.609375-64 84 28.652344 84 64 84 64-37.609375 64-84zm0 0" fill="#e65d52"/><path d="m156 448c-50.785156-.058594-91.941406-41.214844-92-92v-92h16v92c0 41.972656 34.027344 76 76 76s76-34.027344 76-76v-28h16v28c-.058594 50.785156-41.214844 91.941406-92 92zm0 0" fill="#a3a3a3"/><path d="m416 160h-16v-68c0-41.972656-34.027344-76-76-76s-76 34.027344-76 76v28h-16v-28c0-50.808594 41.191406-92 92-92s92 41.191406 92 92zm0 0" fill="#a3a3a3"/><path d="m136 200c0 35.347656-28.652344 64-64 64s-64-28.652344-64-64 28.652344-64 64-64 64 28.652344 64 64zm0 0" fill="#efefef"/><g fill="#bcbcbc"><path d="m72 272c-39.765625 0-72-32.234375-72-72s32.234375-72 72-72 72 32.234375 72 72c-.042969 39.746094-32.253906 71.957031-72 72zm0-128c-30.929688 0-56 25.070312-56 56s25.070312 56 56 56 56-25.070312 56-56c-.035156-30.914062-25.085938-55.964844-56-56zm0 0"/><path d="m64 160h16v40h-16zm0 0"/></g></svg>